<?xml version="1.0" encoding="UTF-8"?>
<svg xmlns="http://www.w3.org/2000/svg" width="107" height="20" viewBox="0 0 107 20" fill="none">
  <path d="M17.1348 5.79056C17.1348 5.00931 17.0501 4.39082 16.8809 3.93509C16.7116 3.47936 16.4316 3.13431 16.041 2.89993C15.6504 2.66556 15.1361 2.51582 14.498 2.45071C13.86 2.38561 13.0723 2.35306 12.1348 2.35306H7.11523C6.2819 2.35306 5.57878 2.3791 5.00586 2.43118C4.43945 2.47676 3.9707 2.57441 3.59961 2.72415C3.22852 2.87389 2.94206 3.08873 2.74023 3.36868C2.53841 3.64863 2.39193 4.01972 2.30078 4.48196C2.20964 4.9442 2.15755 5.51387 2.14453 6.19095C2.13151 6.86152 2.125 7.66556 2.125 8.60306C2.125 9.54056 2.13151 10.3478 2.14453 11.0249C2.16406 11.6955 2.2194 12.2619 2.31055 12.7242C2.40169 13.1864 2.54492 13.5575 2.74023 13.8374C2.94206 14.1174 3.22852 14.3322 3.59961 14.482C3.9707 14.6317 4.43945 14.7326 5.00586 14.7847C5.57878 14.8303 6.2819 14.8531 7.11523 14.8531H12.1445C12.8737 14.8531 13.502 14.8335 14.0293 14.7945C14.5566 14.7554 15.0059 14.6838 15.377 14.5796C15.748 14.4755 16.0475 14.3322 16.2754 14.1499C16.5033 13.9676 16.679 13.7398 16.8027 13.4663C16.9329 13.1864 17.0208 12.8544 17.0664 12.4702C17.112 12.0796 17.1348 11.6239 17.1348 11.1031V10.1656H9.61523V8.60306H19.0098V11.1031C19.0098 11.7281 18.9707 12.2945 18.8926 12.8023C18.8145 13.3036 18.6745 13.7528 18.4727 14.1499C18.2773 14.5406 18.0137 14.8791 17.6816 15.1656C17.3496 15.452 16.9297 15.6896 16.4219 15.8784C15.9141 16.0607 15.3086 16.1942 14.6055 16.2788C13.9023 16.37 13.082 16.4156 12.1445 16.4156H7.11523C5.9694 16.4156 5.0026 16.3439 4.21484 16.2007C3.43359 16.064 2.78906 15.8557 2.28125 15.5757C1.77344 15.2893 1.37956 14.9312 1.09961 14.5015C0.826172 14.0718 0.624349 13.5673 0.494141 12.9878C0.370443 12.4084 0.298828 11.7541 0.279297 11.0249C0.259766 10.2958 0.25 9.48847 0.25 8.60306C0.25 7.71764 0.259766 6.91035 0.279297 6.18118C0.298828 5.45202 0.370443 4.79772 0.494141 4.21829C0.624349 3.63887 0.826172 3.13431 1.09961 2.70462C1.37956 2.27493 1.77344 1.92012 2.28125 1.64017C2.78906 1.35371 3.43359 1.14212 4.21484 1.0054C5.0026 0.862172 5.9694 0.790558 7.11523 0.790558H12.1348C13.0723 0.790558 13.8926 0.836131 14.5957 0.927277C15.2988 1.01191 15.9043 1.14538 16.4121 1.32767C16.9199 1.50345 17.3398 1.72806 17.6719 2.0015C18.0104 2.27493 18.2773 2.5972 18.4727 2.96829C18.6745 3.33939 18.8145 3.75931 18.8926 4.22806C18.9707 4.69681 19.0098 5.21764 19.0098 5.79056H17.1348ZM26.832 16.1031L20.8945 4.85306H23.082L28.082 14.8531L32.7695 4.85306H34.957L29.332 16.1031L29.0195 16.7281C28.8633 17.0406 28.707 17.3335 28.5508 17.607C28.401 17.8869 28.2285 18.1408 28.0332 18.3687C27.8379 18.6031 27.6068 18.8114 27.3398 18.9937C27.0729 19.176 26.7441 19.329 26.3535 19.4527C25.9694 19.5829 25.5104 19.6805 24.9766 19.7456C24.4427 19.8173 23.8112 19.8531 23.082 19.8531V18.2906C23.707 18.2906 24.2344 18.2645 24.6641 18.2124C25.0938 18.1669 25.4518 18.0952 25.7383 17.9976C26.0312 17.9064 26.2656 17.7958 26.4414 17.6656C26.6172 17.5353 26.7637 17.3889 26.8809 17.2261C26.998 17.0633 27.0957 16.8876 27.1738 16.6988C27.2585 16.51 27.3529 16.3114 27.457 16.1031H26.832ZM48.707 16.1031H46.832V9.7554C46.832 9.07832 46.7865 8.50866 46.6953 8.04642C46.6107 7.57767 46.4316 7.20006 46.1582 6.9136C45.8913 6.62715 45.5104 6.42207 45.0156 6.29837C44.5273 6.16816 43.8828 6.10306 43.082 6.10306C42.2031 6.10306 41.4805 6.17793 40.9141 6.32767C40.3477 6.4709 39.9017 6.67597 39.5762 6.9429C39.2507 7.20332 39.0228 7.51907 38.8926 7.89017C38.7689 8.26126 38.707 8.67467 38.707 9.1304V16.1031H36.832V4.85306H38.707V6.6304C38.7135 6.61087 38.7428 6.54577 38.7949 6.43509C38.847 6.32441 38.9382 6.1942 39.0684 6.04446C39.2051 5.88821 39.3874 5.7222 39.6152 5.54642C39.8496 5.37064 40.1491 5.20788 40.5137 5.05814C40.8848 4.9084 41.3307 4.7847 41.8516 4.68704C42.3724 4.58939 42.9909 4.54056 43.707 4.54056C44.4102 4.54056 45.0189 4.58613 45.5332 4.67728C46.054 4.76191 46.4967 4.89212 46.8613 5.0679C47.2324 5.23717 47.5319 5.45202 47.7598 5.71243C47.9941 5.96634 48.1797 6.25931 48.3164 6.59134C48.4271 6.41556 48.5996 6.21048 48.834 5.9761C49.0684 5.74173 49.3939 5.51712 49.8105 5.30228C50.2337 5.08743 50.7611 4.9084 51.3926 4.76517C52.0241 4.61543 52.7956 4.54056 53.707 4.54056C54.4557 4.54056 55.097 4.59264 55.6309 4.69681C56.1712 4.79446 56.627 4.9442 56.998 5.14603C57.3691 5.34134 57.6654 5.58548 57.8867 5.87845C58.1146 6.17142 58.2871 6.51321 58.4043 6.90384C58.528 7.28795 58.6094 7.7209 58.6484 8.20267C58.6875 8.67793 58.707 9.19551 58.707 9.7554V16.1031H56.832V9.7554C56.832 9.07832 56.7865 8.50866 56.6953 8.04642C56.6107 7.57767 56.4316 7.20006 56.1582 6.9136C55.8913 6.62715 55.5104 6.42207 55.0156 6.29837C54.5273 6.16816 53.8828 6.10306 53.082 6.10306C52.2031 6.10306 51.4805 6.17793 50.9141 6.32767C50.3477 6.4709 49.9017 6.67597 49.5762 6.9429C49.2507 7.20332 49.0228 7.51907 48.8926 7.89017C48.7689 8.26126 48.707 8.67467 48.707 9.1304V16.1031Z" fill="white"></path>
  <path d="M61.832 1.10306H73.1016C74.0326 1.10306 74.8171 1.14538 75.4551 1.23001C76.0996 1.30814 76.6302 1.42858 77.0469 1.59134C77.4635 1.7541 77.7826 1.95592 78.0039 2.19681C78.2318 2.43769 78.3978 2.7209 78.502 3.04642C78.6061 3.37194 78.6647 3.73652 78.6777 4.14017C78.6973 4.54381 78.707 4.98978 78.707 5.47806C78.707 5.98587 78.694 6.45462 78.668 6.88431C78.6484 7.314 78.5736 7.70462 78.4434 8.05618C78.3197 8.40123 78.1178 8.70722 77.8379 8.97415C77.5645 9.23457 77.1706 9.45267 76.6562 9.62845C76.1484 9.80423 75.5007 9.93769 74.7129 10.0288C73.9316 10.12 72.9681 10.1656 71.8223 10.1656H63.707V16.1031H61.832V1.10306ZM63.707 8.60306H71.8223C72.6556 8.60306 73.3555 8.59004 73.9219 8.564C74.4948 8.53144 74.9668 8.4761 75.3379 8.39798C75.709 8.31985 75.9954 8.20918 76.1973 8.06595C76.3991 7.92272 76.5456 7.73392 76.6367 7.49954C76.7344 7.26517 76.7897 6.98522 76.8027 6.6597C76.8223 6.32767 76.832 5.93379 76.832 5.47806C76.832 5.05488 76.8223 4.6903 76.8027 4.38431C76.7897 4.07832 76.7344 3.82116 76.6367 3.61282C76.5456 3.40449 76.3991 3.23847 76.1973 3.11478C75.9954 2.99108 75.709 2.89668 75.3379 2.83157C74.9668 2.75996 74.4948 2.71439 73.9219 2.69485C73.3555 2.67532 72.6556 2.66556 71.8223 2.66556H63.707V8.60306ZM90.2695 8.51517C90.2695 8.04642 90.2337 7.65905 90.1621 7.35306C90.097 7.04056 89.9375 6.79316 89.6836 6.61087C89.4297 6.42207 89.0521 6.29186 88.5508 6.22025C88.056 6.14212 87.3789 6.10306 86.5195 6.10306C85.6797 6.10306 84.9961 6.17793 84.4688 6.32767C83.9414 6.4709 83.528 6.67597 83.2285 6.9429C82.929 7.20983 82.724 7.52884 82.6133 7.89993C82.5091 8.27103 82.457 8.68444 82.457 9.14017V16.1031H80.582V4.85306H82.457V6.64017C82.5221 6.43834 82.6426 6.21699 82.8184 5.9761C82.9941 5.72871 83.2611 5.50084 83.6191 5.29251C83.9772 5.07767 84.4395 4.89863 85.0059 4.7554C85.5788 4.61217 86.2917 4.54056 87.1445 4.54056C88.1211 4.54056 88.9154 4.62845 89.5273 4.80423C90.1393 4.9735 90.6146 5.22741 90.9531 5.56595C91.2982 5.89798 91.5293 6.31139 91.6465 6.80618C91.7702 7.30097 91.832 7.87064 91.832 8.51517H90.2695ZM92.7695 10.3999C92.7695 9.24759 92.8932 8.29381 93.1406 7.5386C93.388 6.7834 93.7852 6.18444 94.332 5.74173C94.8789 5.29902 95.5885 4.98978 96.4609 4.814C97.3333 4.6317 98.3945 4.54056 99.6445 4.54056C100.895 4.54056 101.956 4.6317 102.828 4.814C103.701 4.98978 104.41 5.29902 104.957 5.74173C105.504 6.18444 105.901 6.7834 106.148 7.5386C106.396 8.29381 106.52 9.24759 106.52 10.3999C106.52 11.5523 106.396 12.5093 106.148 13.271C105.901 14.0327 105.504 14.6382 104.957 15.0874C104.41 15.5367 103.701 15.8557 102.828 16.0445C101.956 16.2268 100.895 16.3179 99.6445 16.3179C98.3945 16.3179 97.3333 16.2268 96.4609 16.0445C95.5885 15.8557 94.8789 15.5367 94.332 15.0874C93.7852 14.6382 93.388 14.0327 93.1406 13.271C92.8932 12.5093 92.7695 11.5523 92.7695 10.3999ZM94.6445 10.3999C94.6445 11.0249 94.6673 11.5686 94.7129 12.0308C94.7585 12.493 94.8431 12.8902 94.9668 13.2222C95.097 13.5542 95.276 13.8244 95.5039 14.0327C95.7318 14.2411 96.0312 14.4071 96.4023 14.5308C96.7734 14.6545 97.2227 14.7391 97.75 14.7847C98.2839 14.8303 98.9154 14.8531 99.6445 14.8531C100.27 14.8531 100.826 14.84 101.314 14.814C101.809 14.7814 102.239 14.7131 102.604 14.6089C102.975 14.5048 103.29 14.3583 103.551 14.1695C103.811 13.9742 104.02 13.7105 104.176 13.3784C104.339 13.0464 104.456 12.6395 104.527 12.1577C104.605 11.6695 104.645 11.0835 104.645 10.3999C104.645 9.72936 104.605 9.1597 104.527 8.69095C104.456 8.21569 104.339 7.81855 104.176 7.49954C104.02 7.18053 103.811 6.92988 103.551 6.74759C103.29 6.55879 102.975 6.41881 102.604 6.32767C102.239 6.23001 101.809 6.16816 101.314 6.14212C100.826 6.11608 100.27 6.10306 99.6445 6.10306C99.0195 6.10306 98.4596 6.11608 97.9648 6.14212C97.4766 6.16816 97.0469 6.23001 96.6758 6.32767C96.3112 6.41881 95.9987 6.55879 95.7383 6.74759C95.4779 6.92988 95.2663 7.18053 95.1035 7.49954C94.9473 7.81855 94.8301 8.21569 94.752 8.69095C94.6803 9.1597 94.6445 9.72936 94.6445 10.3999Z" fill="#AAE925"></path>
</svg>
